REM DIRINDEX 1\2\3,1\2\4,1\2\5,1\2\6
REM DIRNAME folder01,folder02,folder03,folder04,folder05,folder06
TITLE ""
FILE "105 105.mp3" MP3
  TRACK 01 AUDIO
    TITLE "0:"
    INDEX 01 00:00:00
  TRACK 02 AUDIO
    TITLE "3:cjc157_3954"
    INDEX 01 00:00:07
  TRACK 03 AUDIO
    TITLE "0:"
    INDEX 01 00:01:21
  TRACK 04 AUDIO
    TITLE "4:cjc157_3955"
    INDEX 01 00:01:64
  TRACK 05 AUDIO
    TITLE "0:"
    INDEX 01 00:02:67
  TRACK 06 AUDIO
    TITLE "5:cjc157_3956"
    INDEX 01 00:03:41
  TRACK 07 AUDIO
    TITLE "0:"
    INDEX 01 00:05:09
  TRACK 08 AUDIO
    TITLE "5:cjc157_3957"
    INDEX 01 00:05:57
  TRACK 09 AUDIO
    TITLE "0:"
    INDEX 01 00:08:42
  TRACK 10 AUDIO
    TITLE "3:cjc157_3958"
    INDEX 01 00:09:12
  TRACK 11 AUDIO
    TITLE "0:"
    INDEX 01 00:10:21
  TRACK 12 AUDIO
    TITLE "4:cjc157_3959"
    INDEX 01 00:10:66
  TRACK 13 AUDIO
    TITLE "0:"
    INDEX 01 00:11:68
  TRACK 14 AUDIO
    TITLE "5:cjc157_3960"
    INDEX 01 00:12:44
  TRACK 15 AUDIO
    TITLE "0:"
    INDEX 01 00:14:47
  TRACK 16 AUDIO
    TITLE "5:cjc157_3961"
    INDEX 01 00:15:17
  TRACK 17 AUDIO
    TITLE "0:"
    INDEX 01 00:17:69
  TRACK 18 AUDIO
    TITLE "3:cjc157_3962"
    INDEX 01 00:18:42
  TRACK 19 AUDIO
    TITLE "0:"
    INDEX 01 00:19:65
  TRACK 20 AUDIO
    TITLE "4:cjc157_3963"
    INDEX 01 00:20:37
  TRACK 21 AUDIO
    TITLE "0:"
    INDEX 01 00:21:57
  TRACK 22 AUDIO
    TITLE "5:cjc157_3964"
    INDEX 01 00:22:23
  TRACK 23 AUDIO
    TITLE "0:"
    INDEX 01 00:24:27
  TRACK 24 AUDIO
    TITLE "5:cjc157_3965"
    INDEX 01 00:24:71
  TRACK 25 AUDIO
    TITLE "0:"
    INDEX 01 00:27:00
  TRACK 26 AUDIO
    TITLE "3:cjc157_3966"
    INDEX 01 00:27:45
  TRACK 27 AUDIO
    TITLE "0:"
    INDEX 01 00:28:55
  TRACK 28 AUDIO
    TITLE "4:cjc157_3967"
    INDEX 01 00:29:27
  TRACK 29 AUDIO
    TITLE "0:"
    INDEX 01 00:30:57
  TRACK 30 AUDIO
    TITLE "5:cjc157_3968"
    INDEX 01 00:31:26
  TRACK 31 AUDIO
    TITLE "0:"
    INDEX 01 00:33:52
  TRACK 32 AUDIO
    TITLE "3:cjc157_3969"
    INDEX 01 00:34:18
  TRACK 33 AUDIO
    TITLE "0:"
    INDEX 01 00:35:39
  TRACK 34 AUDIO
    TITLE "4:cjc157_3970"
    INDEX 01 00:36:11
  TRACK 35 AUDIO
    TITLE "0:"
    INDEX 01 00:37:28
  TRACK 36 AUDIO
    TITLE "5:cjc157_3971"
    INDEX 01 00:38:02
  TRACK 37 AUDIO
    TITLE "0:"
    INDEX 01 00:40:17
  TRACK 38 AUDIO
    TITLE "3:cjc157_3972"
    INDEX 01 00:40:62
  TRACK 39 AUDIO
    TITLE "0:"
    INDEX 01 00:42:18
  TRACK 40 AUDIO
    TITLE "4:cjc157_3973"
    INDEX 01 00:42:59
  TRACK 41 AUDIO
    TITLE "0:"
    INDEX 01 00:46:06
  TRACK 42 AUDIO
    TITLE "5:cjc157_3974"
    INDEX 01 00:46:58
  TRACK 43 AUDIO
    TITLE "0:"
    INDEX 01 00:48:67
  TRACK 44 AUDIO
    TITLE "3:cjc157_3975"
    INDEX 01 00:49:45
  TRACK 45 AUDIO
    TITLE "0:"
    INDEX 01 00:50:54
  TRACK 46 AUDIO
    TITLE "4:cjc157_3976"
    INDEX 01 00:51:24
  TRACK 47 AUDIO
    TITLE "0:"
    INDEX 01 00:52:39
  TRACK 48 AUDIO
    TITLE "5:cjc157_3977"
    INDEX 01 00:53:09
  TRACK 49 AUDIO
    TITLE "0:"
    INDEX 01 00:55:10
  TRACK 50 AUDIO
    TITLE "3:cjc157_3978"
    INDEX 01 00:55:55
  TRACK 51 AUDIO
    TITLE "0:"
    INDEX 01 00:57:09
  TRACK 52 AUDIO
    TITLE "4:cjc157_3979"
    INDEX 01 00:57:54
  TRACK 53 AUDIO
    TITLE "0:"
    INDEX 01 00:59:16
  TRACK 54 AUDIO
    TITLE "5:cjc157_3980"
    INDEX 01 00:59:67
  TRACK 55 AUDIO
    TITLE "0:"
    INDEX 01 01:02:65
  TRACK 56 AUDIO
    TITLE "3:cjc157_3981"
    INDEX 01 01:03:37
  TRACK 57 AUDIO
    TITLE "0:"
    INDEX 01 01:04:52
  TRACK 58 AUDIO
    TITLE "4:cjc157_3982"
    INDEX 01 01:05:26
  TRACK 59 AUDIO
    TITLE "0:"
    INDEX 01 01:06:42
  TRACK 60 AUDIO
    TITLE "5:cjc157_3983"
    INDEX 01 01:07:15
  TRACK 61 AUDIO
    TITLE "0:"
    INDEX 01 01:09:38
  TRACK 62 AUDIO
    TITLE "3:cjc157_3984"
    INDEX 01 01:10:08
  TRACK 63 AUDIO
    TITLE "0:"
    INDEX 01 01:11:19
  TRACK 64 AUDIO
    TITLE "4:cjc157_3985"
    INDEX 01 01:11:64
  TRACK 65 AUDIO
    TITLE "0:"
    INDEX 01 01:12:71
  TRACK 66 AUDIO
    TITLE "5:cjc157_3986"
    INDEX 01 01:13:42
  TRACK 67 AUDIO
    TITLE "0:"
    INDEX 01 01:15:35
